<svg width="16" height="12" viewBox="0 0 16 12" fill="none" xmlns="http://www.w3.org/2000/svg">
<path fill-rule="evenodd" clip-rule="evenodd" d="M0.5 0.75C0.5 0.335786 0.835786 0 1.25 0H14.75C15.1642 0 15.5 0.335786 15.5 0.75C15.5 1.16421 15.1642 1.5 14.75 1.5H1.25C0.835786 1.5 0.5 1.16421 0.5 0.75ZM0.5 6C0.5 5.58579 0.835786 5.25 1.25 5.25H14.75C15.1642 5.25 15.5 5.58579 15.5 6C15.5 6.41421 15.1642 6.75 14.75 6.75H1.25C0.835786 6.75 0.5 6.41421 0.5 6Z" fill="#90A0B7"/>
<path fill-rule="evenodd" clip-rule="evenodd" d="M0.5 11.25C0.5 10.8358 0.835786 10.5 1.25 10.5H14.75C15.1642 10.5 15.5 10.8358 15.5 11.25C15.5 11.6642 15.1642 12 14.75 12H1.25C0.835786 12 0.5 11.6642 0.5 11.25Z" fill="#90A0B7"/>
</svg>
