<svg width="16" height="16" viewBox="0 0 16 16" fill="none" xmlns="http://www.w3.org/2000/svg">
<path fill-rule="evenodd" clip-rule="evenodd" d="M1.5 1C1.22386 1 1 1.22386 1 1.5V14.5C1 14.7761 1.22386 15 1.5 15H14.5C14.7761 15 15 14.7761 15 14.5V1.5C15 1.22386 14.7761 1 14.5 1H1.5ZM0 1.5C0 0.671573 0.671573 0 1.5 0H14.5C15.3284 0 16 0.671573 16 1.5V14.5C16 15.3284 15.3284 16 14.5 16H1.5C0.671573 16 0 15.3284 0 14.5V1.5Z" fill="#90A0B7"/>
<path fill-rule="evenodd" clip-rule="evenodd" d="M3 3.25C3 2.97386 3.22386 2.75 3.5 2.75H6.5C6.77614 2.75 7 2.97386 7 3.25V6H9V3.25C9 2.97386 9.22386 2.75 9.5 2.75H12.5C12.7761 2.75 13 2.97386 13 3.25V12.75C13 13.0261 12.7761 13.25 12.5 13.25H9.5C9.22386 13.25 9 13.0261 9 12.75V10H7V12.75C7 13.0261 6.77614 13.25 6.5 13.25H3.5C3.22386 13.25 3 13.0261 3 12.75V3.25ZM4 3.75V12.25H6V9.5C6 9.22386 6.22386 9 6.5 9H9.5C9.77614 9 10 9.22386 10 9.5V12.25H12V3.75H10V6.5C10 6.77614 9.77614 7 9.5 7H6.5C6.22386 7 6 6.77614 6 6.5V3.75H4Z" fill="#90A0B7"/>
</svg>
