<svg width="12" height="12" viewBox="0 0 12 12" fill="none" xmlns="http://www.w3.org/2000/svg">
<path fill-rule="evenodd" clip-rule="evenodd" d="M0.270869 0.270319C0.631377 -0.0901409 1.21584 -0.0901011 1.5763 0.270407L6.00039 4.69511L10.4242 0.271286C10.7847 -0.0891975 11.3692 -0.0891975 11.7296 0.271286C12.0901 0.63177 12.0901 1.21623 11.7296 1.57671L7.30573 6.00062L11.7297 10.4252C12.0901 10.7857 12.0901 11.3701 11.7296 11.7306C11.3691 12.0911 10.7846 12.091 10.4242 11.7305L6.0003 7.30605L1.57579 11.7306C1.21531 12.091 0.630847 12.091 0.270363 11.7306C-0.090121 11.3701 -0.090121 10.7856 0.270363 10.4251L4.69496 6.00053L0.27078 1.57575C-0.0896796 1.21524 -0.0896398 0.630778 0.270869 0.270319Z" fill="#F7685B"/>
</svg>
