<svg width="17" height="17" viewBox="0 0 17 17" fill="none" xmlns="http://www.w3.org/2000/svg">
<path fill-rule="evenodd" clip-rule="evenodd" d="M8.5 1.0625C4.39238 1.0625 1.0625 4.39238 1.0625 8.5C1.0625 12.6076 4.39238 15.9375 8.5 15.9375C12.6076 15.9375 15.9375 12.6076 15.9375 8.5C15.9375 4.39238 12.6076 1.0625 8.5 1.0625ZM0 8.5C0 3.80558 3.80558 0 8.5 0C13.1944 0 17 3.80558 17 8.5C17 13.1944 13.1944 17 8.5 17C3.80558 17 0 13.1944 0 8.5Z" fill="#90A0B7"/>
<path fill-rule="evenodd" clip-rule="evenodd" d="M8.5 1.59375C8.7934 1.59375 9.03125 1.8316 9.03125 2.125V3.71848C9.03125 4.01189 8.7934 4.24973 8.5 4.24973C8.2066 4.24973 7.96875 4.01189 7.96875 3.71848V2.125C7.96875 1.8316 8.2066 1.59375 8.5 1.59375ZM13.3913 3.87435C13.5987 4.08182 13.5987 4.41818 13.3913 4.62565L12.3288 5.68815C12.1213 5.89562 11.7849 5.89562 11.5775 5.68815C11.37 5.48068 11.37 5.14432 11.5775 4.93685L12.64 3.87435C12.8474 3.66688 13.1838 3.66688 13.3913 3.87435ZM1.59375 8.5C1.59375 8.2066 1.8316 7.96875 2.125 7.96875H3.71875C4.01215 7.96875 4.25 8.2066 4.25 8.5C4.25 8.7934 4.01215 9.03125 3.71875 9.03125H2.125C1.8316 9.03125 1.59375 8.7934 1.59375 8.5ZM12.75 8.5C12.75 8.2066 12.9878 7.96875 13.2812 7.96875H14.875C15.1684 7.96875 15.4062 8.2066 15.4062 8.5C15.4062 8.7934 15.1684 9.03125 14.875 9.03125H13.2812C12.9878 9.03125 12.75 8.7934 12.75 8.5Z" fill="#90A0B7"/>
<path fill-rule="evenodd" clip-rule="evenodd" d="M5.10908 5.10591L7.63634 9.11733C7.72534 9.24204 7.84029 9.34606 7.97334 9.42221C8.10965 9.50022 8.26155 9.54703 8.41813 9.55928C8.5747 9.57153 8.73204 9.54891 8.87881 9.49304C9.02559 9.43718 9.15815 9.34947 9.26696 9.23622C9.37577 9.12296 9.45811 8.987 9.50805 8.8381C9.558 8.68921 9.57431 8.53109 9.55581 8.37513C9.5373 8.21918 9.48445 8.06927 9.40105 7.93619C9.31793 7.80357 9.20654 7.69096 9.07484 7.60641L5.10908 5.10591ZM4.24229 3.45297C4.38136 3.45163 4.51836 3.4867 4.63967 3.55471C4.64765 3.55918 4.6555 3.56385 4.66323 3.56873L9.64617 6.71057C9.91077 6.87989 10.1345 7.10578 10.3014 7.37196C10.4682 7.63814 10.5739 7.938 10.6109 8.24995C10.6479 8.5619 10.6153 8.87818 10.5154 9.17601C10.4155 9.47384 10.2508 9.74581 10.0331 9.97233C9.81551 10.1989 9.55034 10.3743 9.25675 10.4861C8.96316 10.5978 8.64844 10.643 8.33526 10.6185C8.02208 10.594 7.71823 10.5004 7.44558 10.3444C7.17294 10.1883 6.93829 9.97378 6.75852 9.71616C6.75375 9.70933 6.74915 9.70239 6.7447 9.69534L3.5898 4.68768C3.50467 4.56248 3.45721 4.41532 3.4533 4.26368C3.45319 4.25924 3.45313 4.25481 3.45313 4.25038C3.45303 4.11131 3.48933 3.97463 3.55842 3.85393C3.62751 3.73323 3.72698 3.63272 3.84696 3.56238C3.96693 3.49203 4.10323 3.45432 4.24229 3.45297Z" fill="#90A0B7"/>
</svg>
