<svg width="18" height="24" viewBox="0 0 18 24" fill="none" xmlns="http://www.w3.org/2000/svg">
<path fill-rule="evenodd" clip-rule="evenodd" d="M0.375 0.75C0.375 0.335786 0.710786 0 1.125 0H10.875C11.0739 0 11.2647 0.0790176 11.4053 0.21967L17.4053 6.21967C17.546 6.36032 17.625 6.55109 17.625 6.75V23.25C17.625 23.6642 17.2892 24 16.875 24H1.125C0.710786 24 0.375 23.6642 0.375 23.25V0.75ZM1.875 1.5V22.5H16.125V7.06066L10.5643 1.5H1.875Z" fill="#90A0B7"/>
<path fill-rule="evenodd" clip-rule="evenodd" d="M10.875 0C11.2892 0 11.625 0.335786 11.625 0.75V6H16.875C17.2892 6 17.625 6.33579 17.625 6.75C17.625 7.16421 17.2892 7.5 16.875 7.5H10.875C10.4608 7.5 10.125 7.16421 10.125 6.75V0.75C10.125 0.335786 10.4608 0 10.875 0Z" fill="#90A0B7"/>
<path fill-rule="evenodd" clip-rule="evenodd" d="M4.125 8.25C4.125 7.83579 4.46079 7.5 4.875 7.5H7.875C8.28921 7.5 8.625 7.83579 8.625 8.25C8.625 8.66421 8.28921 9 7.875 9H4.875C4.46079 9 4.125 8.66421 4.125 8.25ZM4.125 12C4.125 11.5858 4.46079 11.25 4.875 11.25H13.125C13.5392 11.25 13.875 11.5858 13.875 12C13.875 12.4142 13.5392 12.75 13.125 12.75H4.875C4.46079 12.75 4.125 12.4142 4.125 12ZM4.125 15.75C4.125 15.3358 4.46079 15 4.875 15H13.125C13.5392 15 13.875 15.3358 13.875 15.75C13.875 16.1642 13.5392 16.5 13.125 16.5H4.875C4.46079 16.5 4.125 16.1642 4.125 15.75ZM4.125 19.5C4.125 19.0858 4.46079 18.75 4.875 18.75H11.625C12.0392 18.75 12.375 19.0858 12.375 19.5C12.375 19.9142 12.0392 20.25 11.625 20.25H4.875C4.46079 20.25 4.125 19.9142 4.125 19.5Z" fill="#90A0B7"/>
</svg>
