<svg width="18" height="18" viewBox="0 0 18 18" fill="none" xmlns="http://www.w3.org/2000/svg">
<path fill-rule="evenodd" clip-rule="evenodd" d="M9 1.125C4.65076 1.125 1.125 4.65076 1.125 9C1.125 13.3492 4.65076 16.875 9 16.875C13.3492 16.875 16.875 13.3492 16.875 9C16.875 4.65076 13.3492 1.125 9 1.125ZM0 9C0 4.02944 4.02944 0 9 0C13.9706 0 18 4.02944 18 9C18 13.9706 13.9706 18 9 18C4.02944 18 0 13.9706 0 9Z" fill="#0A679F"/>
<path fill-rule="evenodd" clip-rule="evenodd" d="M4.22223 10.9296C4.49237 10.7762 4.83573 10.8708 4.98913 11.141C5.39052 11.8478 5.97052 12.4368 6.67108 12.849C7.37163 13.2612 8.16818 13.4822 8.98098 13.4898C9.79378 13.4974 10.5943 13.2914 11.3025 12.8924C12.0107 12.4934 12.6016 11.9154 13.0162 11.2162C13.1746 10.949 13.5197 10.8608 13.7869 11.0193C14.0541 11.1777 14.1423 11.5228 13.9838 11.79C13.4688 12.6587 12.7346 13.3768 11.8547 13.8726C10.9749 14.3683 9.98028 14.6242 8.97043 14.6148C7.96059 14.6053 6.97094 14.3308 6.10055 13.8186C5.23016 13.3065 4.50956 12.5747 4.01087 11.6965C3.85746 11.4264 3.95209 11.083 4.22223 10.9296Z" fill="#0A679F"/>
<path fill-rule="evenodd" clip-rule="evenodd" d="M5.0625 7.3125C5.0625 6.69118 5.56618 6.1875 6.1875 6.1875C6.80882 6.1875 7.3125 6.69118 7.3125 7.3125C7.3125 7.93382 6.80882 8.4375 6.1875 8.4375C5.56618 8.4375 5.0625 7.93382 5.0625 7.3125Z" fill="#0A679F"/>
<path fill-rule="evenodd" clip-rule="evenodd" d="M10.6875 7.3125C10.6875 6.69118 11.1912 6.1875 11.8125 6.1875C12.4338 6.1875 12.9375 6.69118 12.9375 7.3125C12.9375 7.93382 12.4338 8.4375 11.8125 8.4375C11.1912 8.4375 10.6875 7.93382 10.6875 7.3125Z" fill="#0A679F"/>
</svg>
