<svg width="24" height="20" viewBox="0 0 24 20" fill="none" xmlns="http://www.w3.org/2000/svg">
<path fill-rule="evenodd" clip-rule="evenodd" d="M7.5 11.5C7.91421 11.5 8.25 11.8358 8.25 12.25C8.25 13.3958 8.25782 14.5686 8.66876 15.637C9.05999 16.6542 9.84054 17.6284 11.5285 18.3036C11.9131 18.4575 12.1002 18.894 11.9464 19.2785C11.7925 19.6631 11.356 19.8502 10.9715 19.6964C8.90946 18.8716 7.81501 17.5958 7.26874 16.1755C6.74974 14.8261 6.74989 13.3959 6.75 12.2978C6.75 12.2818 6.75 12.2659 6.75 12.25C6.75 11.8358 7.08579 11.5 7.5 11.5Z" fill="#90A0B7"/>
<path fill-rule="evenodd" clip-rule="evenodd" d="M7.5 4C7.91421 4 8.25 4.33579 8.25 4.75V12.25C8.25 12.6642 7.91421 13 7.5 13C7.08579 13 6.75 12.6642 6.75 12.25V4.75C6.75 4.33579 7.08579 4 7.5 4Z" fill="#90A0B7"/>
<path fill-rule="evenodd" clip-rule="evenodd" d="M20.25 6.25C20.25 5.83579 20.5858 5.5 21 5.5C21.394 5.5 21.7841 5.5776 22.1481 5.72836C22.512 5.87913 22.8427 6.10011 23.1213 6.37868C23.3999 6.65726 23.6209 6.98798 23.7716 7.35195C23.9224 7.71593 24 8.10604 24 8.5C24 8.89397 23.9224 9.28408 23.7716 9.64805C23.6209 10.012 23.3999 10.3427 23.1213 10.6213C22.8427 10.8999 22.512 11.1209 22.1481 11.2716C21.7841 11.4224 21.394 11.5 21 11.5C20.5858 11.5 20.25 11.1642 20.25 10.75C20.25 10.3358 20.5858 10 21 10C21.197 10 21.392 9.9612 21.574 9.88582C21.756 9.81044 21.9214 9.69995 22.0607 9.56066C22.1999 9.42138 22.3104 9.25602 22.3858 9.07403C22.4612 8.89204 22.5 8.69699 22.5 8.5C22.5 8.30302 22.4612 8.10797 22.3858 7.92598C22.3104 7.74399 22.1999 7.57863 22.0607 7.43934C21.9214 7.30005 21.756 7.18956 21.574 7.11418C21.392 7.0388 21.197 7 21 7C20.5858 7 20.25 6.66422 20.25 6.25Z" fill="#90A0B7"/>
<path fill-rule="evenodd" clip-rule="evenodd" d="M21.3455 0.334315C21.594 0.463301 21.75 0.719993 21.75 1V16C21.75 16.2837 21.5899 16.5432 21.3363 16.6704C21.0827 16.7976 20.779 16.7708 20.5516 16.6012C17.4303 14.2731 13.643 13.0105 9.74909 13H3C2.20435 13 1.44129 12.6839 0.87868 12.1213C0.31607 11.5587 0 10.7957 0 10V7C0 6.20435 0.31607 5.44129 0.87868 4.87868C1.44129 4.31607 2.20435 4 3 4H9.73858C13.6241 3.8806 17.3894 2.62438 20.5683 0.386707C20.7973 0.225532 21.097 0.205329 21.3455 0.334315ZM20.25 2.38801C17.0932 4.31149 13.4837 5.38772 9.77261 5.49966C9.76508 5.49989 9.75754 5.5 9.75 5.5H3C2.60217 5.5 2.22064 5.65804 1.93934 5.93934C1.65804 6.22065 1.5 6.60218 1.5 7V10C1.5 10.3978 1.65804 10.7794 1.93934 11.0607C2.22064 11.342 2.60217 11.5 3 11.5H9.75198C13.4813 11.5099 17.1204 12.5805 20.25 14.5722V2.38801Z" fill="#90A0B7"/>
</svg>
