<svg width="16" height="16" viewBox="0 0 16 16" fill="none" xmlns="http://www.w3.org/2000/svg">
<path fill-rule="evenodd" clip-rule="evenodd" d="M8 1C4.13401 1 1 4.13401 1 8C1 11.866 4.13401 15 8 15C11.866 15 15 11.866 15 8C15 4.13401 11.866 1 8 1ZM0 8C0 3.58172 3.58172 0 8 0C12.4183 0 16 3.58172 16 8C16 12.4183 12.4183 16 8 16C3.58172 16 0 12.4183 0 8Z" fill="#F7685B"/>
<path fill-rule="evenodd" clip-rule="evenodd" d="M6.46536 4.41839C6.13393 4.79638 6 5.26494 6 5.6025C6 5.87864 5.77614 6.1025 5.5 6.1025C5.22386 6.1025 5 5.87864 5 5.6025C5 5.04006 5.21082 4.33237 5.71346 3.75911C6.22985 3.17016 7.03098 2.75 8.14675 2.75C9.30574 2.75 10.0443 3.28443 10.4731 3.92567C10.8823 4.53763 11 5.22756 11 5.6025C11 5.96142 10.9422 6.35668 10.7238 6.81511C10.51 7.26368 10.1527 7.75141 9.58605 8.31805C9.06285 8.8409 8.79494 9.20956 8.65576 9.48394C8.5248 9.74211 8.5 9.93129 8.5 10.125V10.75C8.5 11.0261 8.27614 11.25 8 11.25C7.72386 11.25 7.5 11.0261 7.5 10.75V10.125C7.5 9.80371 7.54958 9.45414 7.76393 9.03156C7.97006 8.62519 8.31852 8.17098 8.87907 7.61082C9.39535 7.09453 9.67175 6.69817 9.821 6.38495C9.96556 6.08157 10 5.83733 10 5.6025C10 5.38369 9.91986 4.89737 9.64179 4.48151C9.38331 4.09494 8.94526 3.75 8.14675 3.75C7.30527 3.75 6.78302 4.05609 6.46536 4.41839Z" fill="#F7685B"/>
<path fill-rule="evenodd" clip-rule="evenodd" d="M8 12.3125C7.89645 12.3125 7.8125 12.3964 7.8125 12.5C7.8125 12.6036 7.89645 12.6875 8 12.6875C8.10355 12.6875 8.1875 12.6036 8.1875 12.5C8.1875 12.3964 8.10355 12.3125 8 12.3125ZM7.1875 12.5C7.1875 12.0513 7.55127 11.6875 8 11.6875C8.44873 11.6875 8.8125 12.0513 8.8125 12.5C8.8125 12.9487 8.44873 13.3125 8 13.3125C7.55127 13.3125 7.1875 12.9487 7.1875 12.5Z" fill="#F7685B"/>
</svg>
