<svg width="15" height="15" viewBox="0 0 15 15" fill="none" xmlns="http://www.w3.org/2000/svg">
<path fill-rule="evenodd" clip-rule="evenodd" d="M8.79169 8.79127C9.0846 8.49839 9.55947 8.49841 9.85235 8.79132L14.2804 13.2197C14.5732 13.5126 14.5732 13.9875 14.2803 14.2804C13.9874 14.5732 13.5125 14.5732 13.2196 14.2803L8.79165 9.85193C8.49877 9.55903 8.49879 9.08415 8.79169 8.79127Z" fill="#90A0B7"/>
<path fill-rule="evenodd" clip-rule="evenodd" d="M5.875 1.75C3.59683 1.75 1.75 3.59683 1.75 5.875C1.75 8.15317 3.59683 10 5.875 10C8.15317 10 10 8.15317 10 5.875C10 3.59683 8.15317 1.75 5.875 1.75ZM0.25 5.875C0.25 2.7684 2.7684 0.25 5.875 0.25C8.9816 0.25 11.5 2.7684 11.5 5.875C11.5 8.9816 8.9816 11.5 5.875 11.5C2.7684 11.5 0.25 8.9816 0.25 5.875Z" fill="#90A0B7"/>
</svg>
