<svg width="18" height="18" viewBox="0 0 18 18" fill="none" xmlns="http://www.w3.org/2000/svg">
<path fill-rule="evenodd" clip-rule="evenodd" d="M9 5.625C7.13604 5.625 5.625 7.13604 5.625 9C5.625 10.864 7.13604 12.375 9 12.375C10.864 12.375 12.375 10.864 12.375 9C12.375 7.13604 10.864 5.625 9 5.625ZM4.5 9C4.5 6.51472 6.51472 4.5 9 4.5C11.4853 4.5 13.5 6.51472 13.5 9C13.5 11.4853 11.4853 13.5 9 13.5C6.51472 13.5 4.5 11.4853 4.5 9Z" fill="#90A0B7"/>
<path fill-rule="evenodd" clip-rule="evenodd" d="M8.46285 2.11224e-06L8.46394 0L9.53715 1.07288e-06C9.9166 0.000735864 10.2803 0.1518 10.5486 0.420118C10.8163 0.687759 10.9672 1.05031 10.9687 1.42873C10.9697 1.49648 10.9923 1.56216 11.0333 1.61612C11.0746 1.67045 11.1323 1.71001 11.1979 1.7289L11.2055 1.73115C11.6809 1.87542 12.1409 2.06628 12.5788 2.30096L12.5856 2.30464C12.6455 2.33784 12.7146 2.35078 12.7825 2.34153C12.85 2.33235 12.9127 2.30176 12.9615 2.25428C13.2302 1.98765 13.5934 1.83799 13.9719 1.83799C14.3514 1.83799 14.7155 1.98838 14.9843 2.25624L14.9854 2.25734L15.7432 3.01652C16.0111 3.28536 16.1614 3.6494 16.1614 4.02891C16.1614 4.40746 16.0118 4.77062 15.7452 5.03926C15.6977 5.08805 15.6671 5.1508 15.6579 5.2183C15.6487 5.28622 15.6616 5.3553 15.6948 5.41527L15.6985 5.42202C15.9332 5.85992 16.124 6.31993 16.2683 6.79535L16.2704 6.80239C16.2893 6.86794 16.3289 6.92562 16.3833 6.96686C16.4374 7.00785 16.5031 7.03042 16.5709 7.03126C16.9495 7.03266 17.3122 7.18365 17.5799 7.45137C17.8482 7.71969 17.9993 8.08339 18 8.46285L18 8.46394L18 9.53715C17.9993 9.91661 17.8482 10.2803 17.5799 10.5486C17.3123 10.8162 16.9499 10.9672 16.5715 10.9687C16.5705 10.9687 16.5694 10.9687 16.5684 10.9688L16.5673 10.4063L16.5729 10.9687L16.5715 10.9687C16.5038 10.9697 16.4382 10.9923 16.3843 11.0333C16.33 11.0745 16.2905 11.1322 16.2716 11.1977L16.2694 11.2049C16.1251 11.6804 15.9343 12.1404 15.6996 12.5783L15.6959 12.585C15.6627 12.645 15.6498 12.7141 15.659 12.782C15.6682 12.8495 15.6988 12.9122 15.7463 12.961C15.7457 12.9603 15.745 12.9597 15.7443 12.959L15.3458 13.356L15.7472 12.9619L15.7463 12.961C16.0129 13.2296 16.1626 13.5928 16.1626 13.9714C16.1626 14.3509 16.0122 14.7149 15.7443 14.9838L15.7432 14.9849L14.9835 15.7432C14.7146 16.0111 14.3506 16.1615 13.9711 16.1615C13.5925 16.1615 13.2294 16.0118 12.9607 15.7452L12.9616 15.7461L13.3557 15.3447L12.9587 15.7432C12.9594 15.7439 12.96 15.7445 12.9607 15.7452C12.9119 15.6977 12.8492 15.6671 12.7817 15.6579C12.7138 15.6487 12.6447 15.6616 12.5847 15.6948L12.578 15.6985C12.1401 15.9332 11.6801 16.124 11.2047 16.2683L11.1976 16.2704C11.1321 16.2893 11.0744 16.329 11.0331 16.3833C10.9921 16.4374 10.9696 16.5032 10.9687 16.571C10.9687 16.5701 10.9687 16.5693 10.9687 16.5684L10.4062 16.5673L10.9687 16.5721L10.9687 16.571C10.9673 16.9496 10.8163 17.3123 10.5485 17.58C10.28 17.8484 9.91622 17.9994 9.53668 18H8.46285C8.08339 17.9993 7.71968 17.8482 7.45137 17.5799C7.18373 17.3123 7.03276 16.9497 7.03126 16.5713L7.03127 16.5727L7.59375 16.5673L7.03125 16.5684C7.03125 16.5694 7.03125 16.5703 7.03126 16.5713C7.03033 16.5037 7.00779 16.4381 6.9669 16.3842C6.92575 16.3299 6.86821 16.2903 6.8028 16.2713L6.79647 16.2694C6.32105 16.1251 5.86105 15.9343 5.42314 15.6996L5.41639 15.6959C5.35643 15.6627 5.28734 15.6498 5.21942 15.659C5.15192 15.6682 5.08917 15.6988 5.04039 15.7463C5.04107 15.7457 5.04174 15.745 5.04242 15.7443L4.64541 15.3458L5.03948 15.7472L5.04039 15.7463C4.77174 16.0129 4.40858 16.1626 4.03003 16.1626C3.65052 16.1626 3.28648 16.0122 3.01764 15.7443L3.01691 15.7436L2.25753 14.9842L2.2568 14.9835C1.98894 14.7146 1.83855 14.3506 1.83855 13.9711C1.83855 13.5925 1.98821 13.2293 2.25484 12.9607L2.25389 12.9616L2.65528 13.3557L2.2568 12.9587C2.25615 12.9594 2.25549 12.96 2.25484 12.9607C2.30232 12.9119 2.33291 12.8492 2.34209 12.7817C2.35134 12.7138 2.3384 12.6447 2.3052 12.5847L2.30152 12.578C2.06684 12.1401 1.87598 11.6801 1.73171 11.2047L1.72962 11.1976C1.71066 11.1321 1.67105 11.0744 1.61668 11.0331C1.56262 10.9921 1.49683 10.9696 1.429 10.9687C1.42987 10.9687 1.43073 10.9687 1.4316 10.9688L1.43269 10.4063L1.42786 10.9687L1.429 10.9687C1.0504 10.9673 0.687673 10.8163 0.419953 10.5485C0.151622 10.2801 0.000611443 9.91623 0 9.53669L3.01748e-07 8.46285C0.000734053 8.08339 0.151798 7.71969 0.420116 7.45137C0.6879 7.18358 1.05069 7.03259 1.42933 7.03126L1.42824 7.03127L1.43269 7.59375L1.4316 7.03125C1.43084 7.03125 1.43009 7.03126 1.42933 7.03126C1.49715 7.03049 1.56294 7.00799 1.61703 6.96705C1.67142 6.92589 1.71107 6.86828 1.73011 6.80279L1.73199 6.79647C1.87626 6.32106 2.06712 5.86105 2.3018 5.42314L2.30548 5.4164C2.33868 5.35643 2.35162 5.28734 2.34237 5.21942C2.33319 5.15194 2.30259 5.0892 2.2551 5.04042C2.25576 5.04109 2.25642 5.04176 2.25708 5.04242L2.65556 4.64541L2.25417 5.03948L2.2551 5.04042C1.98848 4.77178 1.83883 4.4086 1.83883 4.03003C1.83883 3.65053 1.98923 3.28649 2.25708 3.01764L3.01541 2.2579L3.01651 2.2568C3.28536 1.98895 3.6494 1.83855 4.0289 1.83855C4.40747 1.83855 4.77065 1.9882 5.0393 2.25482L5.03835 2.25389L4.64428 2.65528L5.0413 2.2568C5.04063 2.25614 5.03996 2.25548 5.0393 2.25482C5.08808 2.30231 5.15082 2.33291 5.2183 2.34209C5.28621 2.35134 5.3553 2.3384 5.41527 2.3052L5.42202 2.30152C5.85992 2.06684 6.31993 1.87598 6.79534 1.73171L6.80239 1.72962C6.86794 1.71066 6.92562 1.67105 6.96686 1.61668C7.00785 1.56264 7.03042 1.49688 7.03126 1.42907C7.03125 1.42991 7.03125 1.43076 7.03125 1.4316L7.59375 1.43269L7.03127 1.42786L7.03126 1.42907C7.03266 1.05052 7.18364 0.687839 7.45137 0.420118C7.71968 0.1518 8.08339 0.000735864 8.46285 2.11224e-06ZM16.5673 7.59375L16.5625 8.15623C16.2521 8.15356 15.9508 8.05079 15.7035 7.8632C15.4572 7.67644 15.2776 7.41554 15.1908 7.11899C15.0685 6.71658 14.9069 6.32715 14.7085 5.95633C14.5594 5.68517 14.5014 5.37324 14.5432 5.06656C14.5851 4.75844 14.7255 4.47211 14.9433 4.25021L14.9462 4.24727C15.004 4.18928 15.0365 4.11076 15.0365 4.02891C15.0365 3.94708 15.004 3.86859 14.9463 3.81061L14.1903 3.0532L14.1899 3.05284C14.132 2.99529 14.0536 2.96299 13.9719 2.96299C13.8901 2.96299 13.8116 2.99542 13.7536 3.0532L13.7506 3.05611C13.5287 3.27396 13.2424 3.41431 12.9343 3.45625C12.6276 3.498 12.3157 3.44003 12.0445 3.29098C11.6737 3.09253 11.2844 2.93098 10.882 2.80865C10.5855 2.7222 10.3246 2.5428 10.1376 2.29684C9.94979 2.04967 9.84673 1.74847 9.84377 1.43804L9.84375 1.43378C9.84359 1.35193 9.81101 1.27349 9.75314 1.21561C9.69536 1.15784 9.61707 1.12527 9.53537 1.125H8.46462C8.38292 1.12527 8.30464 1.15784 8.24686 1.21561C8.18899 1.27349 8.15641 1.35193 8.15625 1.43378L8.15624 1.43752C8.15357 1.74794 8.05079 2.04921 7.86319 2.29654C7.67644 2.54276 7.41555 2.72244 7.11901 2.80915C6.71658 2.93149 6.32714 3.09307 5.95631 3.29156C5.68515 3.4406 5.37323 3.49856 5.06656 3.45681C4.75844 3.41487 4.47211 3.27452 4.25021 3.05667L4.24726 3.05376C4.18928 2.99599 4.11076 2.96355 4.0289 2.96355C3.94725 2.96355 3.86891 2.99583 3.81097 3.05334L3.81055 3.05376L3.05404 3.81167C2.99636 3.86964 2.96383 3.94825 2.96383 4.03003C2.96383 4.11189 2.99627 4.1904 3.05404 4.24839L3.05695 4.25134C3.2748 4.47323 3.41515 4.75957 3.45709 5.06769C3.49884 5.37436 3.44088 5.68628 3.29184 5.95744C3.09329 6.32837 2.93168 6.71791 2.80933 7.12045C2.72231 7.41689 2.54237 7.67758 2.29598 7.86407C2.04858 8.05132 1.74739 8.15378 1.43713 8.15623L1.43377 8.15626C1.35193 8.15642 1.27348 8.18899 1.21561 8.24686C1.15783 8.30464 1.12526 8.38293 1.125 8.46462V9.53522C1.12522 9.61695 1.15778 9.69529 1.21558 9.7531C1.27345 9.811 1.35191 9.84359 1.43377 9.84375L1.43752 9.84376C1.74794 9.84643 2.0492 9.94921 2.29654 10.1368C2.54275 10.3236 2.72243 10.5844 2.80914 10.881C2.93148 11.2834 3.09306 11.6728 3.29155 12.0437C3.44059 12.3148 3.49856 12.6268 3.45681 12.9334C3.41487 13.2416 3.27452 13.5279 3.05667 13.7498L3.05376 13.7527C2.99598 13.8107 2.96355 13.8892 2.96355 13.9711C2.96355 14.0528 2.99585 14.1311 3.0534 14.1891L3.05376 14.1895L3.81167 14.9474L3.81206 14.9478C3.87001 15.0053 3.94836 15.0376 4.03003 15.0376C4.11188 15.0376 4.1904 15.0051 4.24839 14.9474L4.25133 14.9445C4.47323 14.7266 4.75957 14.5863 5.06769 14.5443C5.37436 14.5026 5.68629 14.5605 5.95745 14.7096C6.32839 14.9081 6.71794 15.0697 7.12049 15.1921C7.41653 15.279 7.67694 15.4586 7.86338 15.7045C8.05059 15.9514 8.15328 16.2521 8.15622 16.562L8.15625 16.5662C8.15641 16.6481 8.18899 16.7265 8.24686 16.7844C8.30464 16.8422 8.38292 16.8747 8.46461 16.875H8.46502H9.53487H9.53533C9.61703 16.8747 9.69531 16.8422 9.7531 16.7844C9.81099 16.7265 9.84359 16.6481 9.84375 16.5662L9.84376 16.5625C9.84642 16.2521 9.94921 15.9508 10.1368 15.7035C10.3236 15.4572 10.5845 15.2776 10.881 15.1909C11.2834 15.0685 11.6728 14.9069 12.0436 14.7085C12.3148 14.5594 12.6268 14.5014 12.9334 14.5432C13.2416 14.5851 13.5279 14.7255 13.7498 14.9433L13.7527 14.9462C13.8107 15.004 13.8892 15.0365 13.9711 15.0365C14.0529 15.0365 14.1313 15.0041 14.1893 14.9464L14.9474 14.1897L14.9478 14.1893C15.0053 14.1314 15.0376 14.053 15.0376 13.9714C15.0376 13.8895 15.0051 13.811 14.9474 13.753L14.9445 13.7501C14.7266 13.5282 14.5863 13.2418 14.5443 12.9337C14.5026 12.627 14.5605 12.3151 14.7096 12.0439C14.908 11.6732 15.0696 11.2838 15.1919 10.8814C15.2785 10.5851 15.4578 10.3243 15.7037 10.1375C15.9506 9.94989 16.2515 9.84687 16.5617 9.84378L16.5662 9.84375C16.6481 9.84359 16.7265 9.81101 16.7844 9.75314C16.8422 9.69536 16.8747 9.61708 16.875 9.53539V9.53498V8.46503V8.46461C16.8747 8.38292 16.8422 8.30464 16.7844 8.24686C16.7265 8.18899 16.6481 8.15641 16.5662 8.15625L16.5673 7.59375Z" fill="#90A0B7"/>
</svg>
