<svg width="18" height="15" viewBox="0 0 18 15" fill="none" xmlns="http://www.w3.org/2000/svg">
<path fill-rule="evenodd" clip-rule="evenodd" d="M12.3638 1.12538C11.9039 1.11626 11.4557 1.27082 11.0992 1.56148C10.8584 1.75777 10.5041 1.7217 10.3078 1.48091C10.1115 1.24013 10.1475 0.885801 10.3883 0.689508C10.9501 0.231526 11.656 -0.0125483 12.3805 0.00049712C13.0426 0.00159183 13.8023 0.198638 14.41 0.676157C15.0388 1.17023 15.4688 1.93841 15.4688 2.98174V4.61655C15.4653 5.15759 15.3454 5.69156 15.1173 6.18215C14.9268 6.59165 14.6646 6.96291 14.3438 7.27871V7.56612C14.3438 7.73567 14.3485 7.76826 14.4007 7.82762C14.4816 7.91977 14.7473 8.11943 15.5509 8.28017C16.5653 8.48305 17.1818 9.05023 17.5363 9.56908C17.7111 9.82482 17.8218 10.0674 17.8895 10.2479C17.9235 10.3386 17.9471 10.4149 17.9628 10.4711C17.9706 10.4992 17.9765 10.5225 17.9807 10.5401C17.9816 10.5437 17.9823 10.547 17.9831 10.5501C17.9841 10.5547 17.985 10.5588 17.9858 10.5623L17.9875 10.5702L17.9882 10.5732L17.9884 10.5745L17.9886 10.5751C17.9886 10.5751 17.9887 10.5757 17.4375 10.688L17.9887 10.5757C17.9962 10.6127 18 10.6503 18 10.688V11.813C18 12.1237 17.7482 12.3755 17.4375 12.3755H14.625C14.3143 12.3755 14.0625 12.1237 14.0625 11.813C14.0625 11.5023 14.3143 11.2505 14.625 11.2505H16.875V10.7589C16.8668 10.7307 16.8542 10.6911 16.8361 10.6429C16.7931 10.5281 16.721 10.3699 16.6075 10.2038C16.3854 9.87888 16.0034 9.51794 15.3303 9.38332C14.4465 9.20656 13.8824 8.94216 13.5556 8.57025C13.2159 8.18369 13.2178 7.7727 13.2187 7.59027C13.2187 7.58171 13.2188 7.57365 13.2188 7.56612V7.03174C13.2188 6.8671 13.2909 6.71072 13.4161 6.60385C13.7049 6.35748 13.9371 6.05184 14.0972 5.7077C14.257 5.36407 14.3411 4.9901 14.3438 4.61114V2.98174C14.3438 2.28132 14.0705 1.84013 13.715 1.56077C13.3401 1.26618 12.8367 1.12549 12.375 1.12549C12.3713 1.12549 12.3676 1.12546 12.3638 1.12538ZM10.9688 7.03174C11.2794 7.03174 11.5312 7.28358 11.5312 7.59424C11.5312 7.60177 11.5313 7.61039 11.5314 7.62004C11.5327 7.74612 11.5359 8.04717 11.3651 8.35338C11.1751 8.69407 10.8292 8.95375 10.3131 9.13686C10.3082 9.1386 10.3033 9.14027 10.2983 9.14187C9.71788 9.3299 9.12263 9.46879 8.51888 9.55708C8.21149 9.60202 7.92587 9.38927 7.88092 9.08188C7.83597 8.77449 8.04872 8.48886 8.35612 8.44391C8.89479 8.36515 9.42592 8.24145 9.94396 8.07411C10.2937 7.94877 10.3688 7.83018 10.3826 7.80542C10.4026 7.76945 10.4062 7.74155 10.4062 7.59424C10.4062 7.28358 10.6581 7.03174 10.9688 7.03174Z" fill="#F28080"/>
<path fill-rule="evenodd" clip-rule="evenodd" d="M4.45051 0.83409C5.10538 0.244266 5.95255 0.000492588 6.75 0.000492588C7.54745 0.000492588 8.39462 0.244266 9.04949 0.83409C9.71587 1.43427 10.125 2.34065 10.125 3.54424V5.51299C10.125 6.77128 9.78888 7.9912 9 8.81686V9.22549C9 9.42153 9.00491 9.50125 9.0978 9.6005C9.22011 9.73119 9.58023 9.96726 10.5931 10.1023C10.5963 10.1027 10.5996 10.1032 10.6028 10.1037C11.9792 10.3117 12.7333 10.9809 13.1223 11.6549C13.3102 11.9803 13.4038 12.2907 13.4508 12.5209C13.4744 12.6365 13.4867 12.7337 13.4931 12.8052C13.4962 12.841 13.498 12.8705 13.4989 12.8929C13.4994 12.9041 13.4997 12.9135 13.4998 12.9211L13.5 12.931L13.5 12.9348L13.5 12.9365L13.5 12.9373C13.5 12.9373 13.5 12.938 12.9375 12.938H13.5V14.063C13.5 14.3737 13.2482 14.6255 12.9375 14.6255H0.5625C0.25184 14.6255 0 14.3737 0 14.063V12.938C0 12.9092 0.00221711 12.8804 0.00663176 12.8519L0.5625 12.938C0.00663176 12.8519 0.00672068 12.8513 0.00672068 12.8513L0.00681757 12.8507L0.00703564 12.8493L0.00757067 12.846L0.00905313 12.8371C0.0102307 12.8303 0.0117966 12.8215 0.0138 12.8109C0.0178048 12.7897 0.0235711 12.7613 0.0314979 12.7266C0.047326 12.6572 0.0719219 12.5619 0.10859 12.4485C0.181528 12.223 0.304549 11.9186 0.506686 11.6018C0.91804 10.9572 1.65606 10.2691 2.90691 10.1023C3.93181 9.96565 4.29451 9.74643 4.41514 9.62579C4.49312 9.54782 4.5 9.49601 4.5 9.28174V8.84458C3.70942 8.01374 3.375 6.76771 3.375 5.51299V3.54424C3.375 2.34065 3.78413 1.43427 4.45051 0.83409ZM1.125 12.9917C1.12599 12.9871 1.1271 12.9821 1.12833 12.9767C1.13766 12.9358 1.15371 12.8729 1.17901 12.7947C1.23 12.637 1.31615 12.4246 1.45503 12.207C1.72571 11.7828 2.19707 11.3319 3.05559 11.2174C4.14006 11.0728 4.81799 10.8139 5.21064 10.4213C5.62783 10.0041 5.62595 9.53057 5.62507 9.30913C5.62504 9.29952 5.625 9.29038 5.625 9.28174V8.60674C5.625 8.44607 5.55629 8.29307 5.4362 8.18633C4.84391 7.65984 4.5 6.69389 4.5 5.51299V3.54424C4.5 2.61034 4.80806 2.02609 5.2034 1.67002C5.61024 1.30359 6.16932 1.12549 6.75 1.12549C7.33068 1.12549 7.88976 1.30359 8.2966 1.67002C8.69194 2.02609 9 2.61034 9 3.54424V5.51299C9 6.68982 8.65819 7.62985 8.0638 8.1582C7.94371 8.26495 7.875 8.41795 7.875 8.57862V9.22549C7.875 9.23324 7.87497 9.24145 7.87494 9.25009C7.87419 9.46207 7.8725 9.93765 8.27642 10.3692C8.66678 10.7863 9.34578 11.0703 10.4393 11.2168C11.4784 11.375 11.9326 11.8441 12.148 12.2172C12.2625 12.4156 12.32 12.6062 12.3486 12.746C12.3628 12.8154 12.3694 12.8705 12.3725 12.905C12.374 12.9222 12.3747 12.9342 12.3749 12.94C12.3749 12.941 12.375 12.9419 12.375 12.9425V13.5005H1.125V12.9917Z" fill="#F28080"/>
</svg>
