<svg width="16" height="18" viewBox="0 0 16 18" fill="none" xmlns="http://www.w3.org/2000/svg">
<path fill-rule="evenodd" clip-rule="evenodd" d="M8 1.125C4.27208 1.125 1.25 4.14708 1.25 7.875C1.25 11.6029 4.27208 14.625 8 14.625C11.7279 14.625 14.75 11.6029 14.75 7.875C14.75 4.14708 11.7279 1.125 8 1.125ZM0.125 7.875C0.125 3.52576 3.65076 0 8 0C12.3492 0 15.875 3.52576 15.875 7.875C15.875 12.2242 12.3492 15.75 8 15.75C3.65076 15.75 0.125 12.2242 0.125 7.875Z" fill="#90A0B7"/>
<path fill-rule="evenodd" clip-rule="evenodd" d="M8 4.5C6.13604 4.5 4.625 6.01104 4.625 7.875C4.625 9.73896 6.13604 11.25 8 11.25C9.86396 11.25 11.375 9.73896 11.375 7.875C11.375 6.01104 9.86396 4.5 8 4.5ZM3.5 7.875C3.5 5.38972 5.51472 3.375 8 3.375C10.4853 3.375 12.5 5.38972 12.5 7.875C12.5 10.3603 10.4853 12.375 8 12.375C5.51472 12.375 3.5 10.3603 3.5 7.875Z" fill="#90A0B7"/>
<path fill-rule="evenodd" clip-rule="evenodd" d="M10.8502 14.2407C10.9071 13.9353 11.2008 13.7338 11.5062 13.7908C12.3592 13.9498 13.1112 14.1653 13.6648 14.4361C13.9406 14.5711 14.1958 14.7334 14.3894 14.9328C14.5854 15.1347 14.75 15.4101 14.75 15.75C14.75 16.0381 14.5895 16.2537 14.4705 16.3792C14.3396 16.5172 14.1709 16.6389 13.9911 16.7461C13.6281 16.9623 13.1314 17.1706 12.5477 17.3523C11.375 17.7174 9.77172 18 8 18C6.24909 18 4.64993 17.8069 3.47109 17.4844C2.88569 17.3242 2.37196 17.1236 1.99139 16.8776C1.63591 16.6478 1.25 16.2794 1.25 15.75C1.25 15.3987 1.35538 15.0833 1.5735 14.8219C1.78025 14.5741 2.05724 14.4121 2.33877 14.2953C2.84139 14.0868 3.52697 13.9597 4.25834 13.8241C4.31779 13.813 4.37755 13.802 4.43753 13.7908C4.47153 13.7844 4.50604 13.7812 4.54063 13.7812H4.59687C4.90754 13.7812 5.15937 14.0331 5.15937 14.3438C5.15937 14.6544 4.90754 14.9062 4.59687 14.9062H4.59259C4.57262 14.91 4.5528 14.9137 4.53311 14.9173C3.73002 15.0669 3.15797 15.1734 2.76982 15.3344C2.57674 15.4145 2.48284 15.488 2.43734 15.5426C2.4051 15.5812 2.37814 15.6313 2.37526 15.7318C2.38523 15.751 2.43003 15.8216 2.60216 15.9328C2.84562 16.0902 3.2354 16.2535 3.76797 16.3992C4.82507 16.6884 6.31966 16.875 8 16.875C9.65953 16.875 11.15 16.6092 12.2133 16.2782C12.7475 16.1118 13.1543 15.9351 13.4153 15.7796C13.4717 15.746 13.5175 15.7156 13.5539 15.6892C13.4799 15.6218 13.3572 15.5381 13.1704 15.4467C12.7466 15.2394 12.1065 15.0471 11.3 14.8967C10.9946 14.8398 10.7932 14.5461 10.8502 14.2407ZM13.6292 15.7773C13.6292 15.7773 13.6287 15.7763 13.6281 15.7745C13.629 15.7764 13.6292 15.7773 13.6292 15.7773ZM13.664 15.5941C13.6668 15.5899 13.6687 15.5878 13.6687 15.5878C13.6687 15.5878 13.6676 15.5899 13.664 15.5941Z" fill="#90A0B7"/>
<path fill-rule="evenodd" clip-rule="evenodd" d="M8 6.75C7.37868 6.75 6.875 7.25368 6.875 7.875C6.875 8.49632 7.37868 9 8 9C8.62132 9 9.125 8.49632 9.125 7.875C9.125 7.25368 8.62132 6.75 8 6.75ZM5.75 7.875C5.75 6.63236 6.75736 5.625 8 5.625C9.24264 5.625 10.25 6.63236 10.25 7.875C10.25 9.11764 9.24264 10.125 8 10.125C6.75736 10.125 5.75 9.11764 5.75 7.875Z" fill="#90A0B7"/>
</svg>
